<svg width="21" height="18" viewBox="0 0 21 18" fill="none" xmlns="http://www.w3.org/2000/svg">
    <path d="M18.2286 9.93602L10.4034 17.187C10.3644 17.2231 10.3133 17.2432 10.2602 17.2432C10.207 17.2432 10.1559 17.2231 10.1169 17.187L2.29171 9.93602C1.73688 9.42195 1.29211 8.80066 0.984327 8.10973C0.676545 7.4188 0.512149 6.67262 0.501086 5.91632C0.490024 5.16002 0.632526 4.40929 0.919969 3.70966C1.20741 3.01002 1.63382 2.37599 2.17338 1.84592C2.71295 1.31584 3.35445 0.900785 4.05908 0.625799C4.7637 0.350814 5.51679 0.221614 6.27278 0.246092C7.02876 0.27057 7.77192 0.448205 8.45728 0.768196C9.14264 1.08819 9.75595 1.54392 10.2601 2.10779C10.7643 1.54405 11.3776 1.08843 12.0629 0.768554C12.7482 0.448673 13.4913 0.271177 14.2472 0.246757C15.0032 0.222338 15.7562 0.351484 16.4607 0.626464C17.1653 0.901445 17.8067 1.31651 18.3462 1.84653C18.8857 2.37655 19.3121 3.01052 19.5995 3.71007C19.887 4.40962 20.0295 5.1602 20.0185 5.91642C20.0075 6.67265 19.8432 7.41883 19.5356 8.10973C19.2279 8.80063 18.7833 9.4219 18.2286 9.93602Z"
          fill="#FF681C"/>
</svg>